<svg xmlns="http://www.w3.org/2000/svg"
 xmlns:xlink="http://www.w3.org/1999/xlink"
 width="19px" height="47px"  viewBox="0 0 19 47">
<path fill-rule="evenodd"  fill="$color_svg$"
 d="M9.999916,1.9996986 C7.678543,1.9996986 1.9999847,9.211475 1.9999847,22.58059 C1.9999847,36.087723 6.9664917,45.244072 7.1781464,45.62622 C7.1781464,45.62622 7.383972,45.99961 7.383972,45.99961 C7.383972,45.99961 12.615952,45.99961 12.615952,45.99961 C12.615952,45.99961 12.821777,45.62622 12.821777,45.62622 C13.033432,45.244072 17.999939,36.087723 17.999939,22.58059 C17.999939,9.211475 12.321381,1.9996986 9.999916,1.9996986 ZM11.733009,44.58023 C11.733009,44.58023 10.727249,44.58023 10.727249,44.58023 C10.727249,44.58023 10.727249,39.61255 10.727249,39.61255 C10.727249,39.61255 9.272675,39.61255 9.272675,39.61255 C9.272675,39.61255 9.272675,44.58023 9.272675,44.58023 C9.272675,44.58023 8.266823,44.58023 8.266823,44.58023 C7.612282,43.26445 5.451576,38.550285 4.261795,31.742882 C5.3759613,33.4067 7.063217,35.183517 9.628357,36.67457 C12.450897,38.314606 13.130852,40.36966 13.272644,40.96026 C12.607193,42.753654 12.022522,43.999023 11.733009,44.58023 ZM13.973793,38.924927 C13.361389,37.866096 12.280701,36.56315 10.373024,35.453934 C4.629059,32.116898 3.7221756,27.274094 3.5948868,26.29821 C3.534462,25.460041 3.497383,24.598083 3.4778137,23.71891 C4.518509,25.604324 6.3628387,27.756718 9.639259,29.58329 C14.311966,32.189194 15.098175,34.768494 15.111992,34.81357 C14.754852,36.333107 14.364319,37.711487 13.973793,38.924927 ZM10.360664,28.33918 C3.5039978,24.515766 3.587593,19.031975 3.5941162,19.031975 C3.5941162,19.031975 3.592659,19.031975 3.592659,19.031975 C4.307625,9.806145 7.6174316,5.3267174 9.272675,3.8844872 C9.272675,3.8844872 9.272675,26.128887 9.272675,26.128887 C9.272675,26.128887 10.727249,26.128887 10.727249,26.128887 C10.727249,26.128887 10.727249,3.8844872 10.727249,3.8844872 C12.589088,5.5063705 16.545456,11.404243 16.545456,22.58059 C16.545456,26.309792 16.143936,29.712555 15.57016,32.68402 C14.727989,31.51503 13.18029,29.91224 10.360664,28.33918 Z"/>
</svg>